<svg width="24" height="21" viewBox="0 0 24 21" fill="none" xmlns="http://www.w3.org/2000/svg">
<path d="M9.35769 19.5417C9.35769 19.8265 9.27418 20.1049 9.1177 20.3417C8.96123 20.5784 8.73884 20.763 8.47863 20.872C8.21843 20.981 7.93212 21.0095 7.65589 20.9539C7.37966 20.8984 7.12593 20.7612 6.92678 20.5599C6.72763 20.3585 6.59201 20.1019 6.53706 19.8226C6.48211 19.5433 6.51031 19.2538 6.61809 18.9907C6.72587 18.7275 6.90839 18.5027 7.14256 18.3444C7.37674 18.1862 7.65205 18.1018 7.93369 18.1018C8.31136 18.1018 8.67356 18.2535 8.94061 18.5235C9.20766 18.7935 9.35769 19.1598 9.35769 19.5417ZM18.512 18.1018C18.2303 18.1018 17.955 18.1862 17.7208 18.3444C17.4867 18.5027 17.3041 18.7275 17.1964 18.9907C17.0886 19.2538 17.0604 19.5433 17.1153 19.8226C17.1703 20.1019 17.3059 20.3585 17.505 20.5599C17.7042 20.7612 17.9579 20.8984 18.2341 20.9539C18.5104 21.0095 18.7967 20.981 19.0569 20.872C19.3171 20.763 19.5395 20.5784 19.696 20.3417C19.8524 20.1049 19.936 19.8265 19.936 19.5417C19.936 19.1598 19.7859 18.7935 19.5189 18.5235C19.2518 18.2535 18.8896 18.1018 18.512 18.1018ZM23.1633 4.91216L20.2625 14.4475C20.1234 14.9105 19.8406 15.3158 19.4559 15.6035C19.0711 15.8912 18.605 16.0459 18.1265 16.0448H8.34767C7.86112 16.0429 7.38829 15.8815 7.00019 15.5848C6.6121 15.2881 6.3297 14.872 6.1954 14.3991L2.51742 1.38335C2.50523 1.34026 2.47946 1.30237 2.44403 1.27545C2.40859 1.24853 2.36543 1.23405 2.32111 1.23421H0.610284C0.448427 1.23421 0.293199 1.1692 0.178748 1.05347C0.0642976 0.937736 0 0.780772 0 0.617106C0 0.453439 0.0642976 0.296476 0.178748 0.180746C0.293199 0.0650162 0.448427 0 0.610284 0H2.32111C2.63028 0.000842972 2.93084 0.103046 3.17769 0.291273C3.42454 0.4795 3.60437 0.743598 3.69019 1.04394L4.55781 4.11404H22.5805C22.6759 4.11414 22.77 4.13685 22.8551 4.18036C22.9403 4.22387 23.0142 4.28697 23.0708 4.36458C23.1275 4.44219 23.1654 4.53215 23.1815 4.62725C23.1975 4.72235 23.1913 4.81993 23.1633 4.91216ZM21.7546 5.34825H4.90669L7.36918 14.0649C7.42998 14.2798 7.55838 14.4689 7.73493 14.6034C7.91149 14.7379 8.12659 14.8107 8.34767 14.8105H18.1234C18.341 14.8106 18.5528 14.7401 18.7278 14.6094C18.9029 14.4787 19.0318 14.2947 19.0958 14.0844L21.7546 5.34825Z" fill="white"/>
</svg>
